<?xml version="1.0"?>
<svg width="267.10001" height="262" xmlns="http://www.w3.org/2000/svg" xmlns:svg="http://www.w3.org/2000/svg">
 <g class="layer">
  <title>background</title>
  <rect fill="none" height="264" id="canvas_background" width="269.10001" x="-1" y="-1"/>
 </g>
 <g class="layer">
  <title>Layer 1</title>
  <g id="layer1">
   <g id="g2509">
    <g id="g2420">
     <path d="m134.12383,30.41498c-55.2,0 -100,44.8 -100,100c0,55.2 44.8,99.99997 100,100c55.2,0 100,-44.8 100,-100c0,-55.2 -44.8,-100 -100,-100zm0,54.28125c25.23429,0.00001 45.71875,20.48446 45.71875,45.71875c-0.00001,25.23429 -20.48446,45.71875 -45.71875,45.71875c-25.23429,0.00002 -45.71875,-20.48446 -45.71875,-45.71875c-0.00001,-25.23429 20.48446,-45.71875 45.71875,-45.71875z" fill="#003298" fill-rule="evenodd" id="path2398" stroke-width="1px"/>
     <path d="m136.12204,257.95294l-24.78297,-26.95254l-24.78297,-26.95255l24.78297,-26.95254l24.78297,-26.95254" fill="#003298" id="path2404" stroke="#ffffff" stroke-width="3.45421"/>
     <path d="m136.12248,3.00025l24.78297,26.95254l24.78297,26.95255l-24.78297,26.95254l-24.78297,26.95254" fill="#003298" id="path2406" stroke="#ffffff" stroke-width="3.45421"/>
     <path d="m156.28517,128.83068l26.95254,24.78297l26.95255,24.78297l26.95254,-24.78297l26.95254,-24.78297" fill="#003298" id="path2408" stroke="#ffffff" stroke-width="3.45421"/>
     <path d="m7.00017,128.83094l26.95254,-24.78297l26.95255,-24.78297l26.95254,24.78297l26.95254,24.78297" fill="#003298" id="path2402" stroke="#ffffff" stroke-width="3.45421"/>
     <path d="m118.62088,132.2518l-69.44798,-63.89216" fill="none" fill-rule="evenodd" id="path2453" stroke="#ffffff" stroke-width="2"/>
     <path d="m224.81317,191.8508l-69.44798,-63.89216" fill="none" fill-rule="evenodd" id="path2455" stroke="#ffffff" stroke-width="2"/>
     <path d="m196.72266,44.93238l-67.56264,73.62357" fill="none" fill-rule="evenodd" id="path2457" stroke="#ffffff" stroke-width="2"/>
     <path d="m137.755,148.34674l-67.56264,73.62357" fill="none" fill-rule="evenodd" id="path2459" stroke="#ffffff" stroke-width="2"/>
    </g>
    <path d="m121.39675,56.21497l0,-6.94491l0.91903,0l0,6.94491l-0.91903,0zm5.68951,0l0,-0.6348c-0.31898,0.49899 -0.78797,0.74849 -1.40698,0.74849c-0.40109,0 -0.76982,-0.11053 -1.10616,-0.33161c-0.33635,-0.22107 -0.59691,-0.52979 -0.78166,-0.92614c-0.18476,-0.39636 -0.27713,-0.85193 -0.27713,-1.36672c0,-0.50215 0.08369,-0.95773 0.25107,-1.36672c0.16739,-0.40898 0.41847,-0.72243 0.75324,-0.94035c0.33477,-0.21792 0.70901,-0.32687 1.12274,-0.32688c0.30319,0.00001 0.57321,0.06396 0.81008,0.19186c0.23687,0.12791 0.42952,0.29451 0.57796,0.49979l0,-2.49183l0.84798,0l0,6.94491l-0.79114,0zm-2.69553,-2.51078c0,0.64428 0.1358,1.1259 0.40741,1.44488c0.2716,0.31898 0.59216,0.47847 0.96168,0.47847c0.37266,0 0.68927,-0.15238 0.94983,-0.45715c0.26055,-0.30477 0.39082,-0.76981 0.39083,-1.39514c-0.00001,-0.68849 -0.13265,-1.1938 -0.39794,-1.51594c-0.26529,-0.32214 -0.59217,-0.4832 -0.98062,-0.48321c-0.37899,0.00001 -0.6956,0.15476 -0.94984,0.46426c-0.25423,0.30951 -0.38135,0.79745 -0.38135,1.46383l0,0zm8.27609,0.89062l0.88115,0.10895c-0.13897,0.51479 -0.39636,0.91431 -0.77219,1.19854c-0.37583,0.28424 -0.85588,0.42636 -1.44014,0.42636c-0.73587,0 -1.31935,-0.2266 -1.75044,-0.6798c-0.4311,-0.4532 -0.64664,-1.08879 -0.64664,-1.90677c0,-0.8464 0.21791,-1.50331 0.65375,-1.97073c0.43583,-0.46741 1.00115,-0.70111 1.69596,-0.70112c0.67269,0.00001 1.22222,0.22898 1.64858,0.68691c0.42636,0.45795 0.63953,1.10222 0.63954,1.93283c-0.00001,0.05053 -0.00158,0.12633 -0.00474,0.22739l-3.75195,0c0.03158,0.55269 0.18791,0.97589 0.46899,1.2696c0.28108,0.29371 0.63164,0.44057 1.05169,0.44057c0.31266,0 0.57952,-0.08211 0.8006,-0.24634c0.22107,-0.16423 0.39635,-0.42636 0.52584,-0.78639l0,0zm-2.79975,-1.37856l2.80923,0c-0.0379,-0.4232 -0.14528,-0.7406 -0.32214,-0.95221c-0.27161,-0.32845 -0.62375,-0.49267 -1.05642,-0.49268c-0.39162,0.00001 -0.72086,0.13107 -0.98773,0.3932c-0.26687,0.26214 -0.41452,0.6127 -0.44294,1.05169l0,0zm4.75627,2.99872l0,-5.03103l0.76744,0l0,0.71533c0.36951,-0.55268 0.90325,-0.82902 1.60122,-0.82903c0.30318,0.00001 0.58189,0.05448 0.83613,0.16344c0.25424,0.10896 0.44452,0.25187 0.57085,0.42873c0.12632,0.17686 0.21475,0.38688 0.26529,0.63006c0.03158,0.15791 0.04737,0.43426 0.04737,0.82903l0,3.09347l-0.85271,0l0,-3.06031c-0.00001,-0.3474 -0.03317,-0.60716 -0.09949,-0.77929c-0.06632,-0.17212 -0.18397,-0.3095 -0.35293,-0.41215c-0.16897,-0.10263 -0.36714,-0.15395 -0.59453,-0.15396c-0.3632,0.00001 -0.67665,0.11528 -0.94036,0.34583c-0.26371,0.23055 -0.39557,0.66796 -0.39556,1.31223l0,2.74765l-0.85272,0zm7.26231,-0.76271l0.12317,0.75323c-0.24003,0.05053 -0.45479,0.0758 -0.64428,0.0758c-0.3095,0 -0.54953,-0.04895 -0.72007,-0.14686c-0.17054,-0.0979 -0.29056,-0.2266 -0.36004,-0.38609c-0.06948,-0.15949 -0.10422,-0.49505 -0.10422,-1.00668l0,-2.8945l-0.62532,0l0,-0.66322l0.62532,0l0,-1.24592l0.84798,-0.51163l0,1.75755l0.85746,0l0,0.66322l-0.85746,0l0,2.94188c0,0.24318 0.015,0.39951 0.04501,0.46899c0.03,0.06948 0.07895,0.12475 0.14685,0.16581c0.0679,0.04105 0.16502,0.06158 0.29135,0.06158c0.09474,0 0.21949,-0.01105 0.37425,-0.03316l0,0zm0.83376,-5.20158l0,-0.98062l0.85272,0l0,0.98062l-0.85272,0zm0,5.96429l0,-5.03103l0.85272,0l0,5.03103l-0.85272,0zm2.35919,0l0,-4.36781l-0.75323,0l0,-0.66322l0.75323,0l0,-0.53532c0,-0.33792 0.03,-0.589 0.09001,-0.75323c0.08211,-0.22107 0.2266,-0.4003 0.43346,-0.53769c0.20686,-0.13738 0.49663,-0.20607 0.8693,-0.20607c0.24002,0 0.50531,0.02843 0.79587,0.08527l-0.12791,0.74376c-0.17686,-0.03158 -0.34425,-0.04737 -0.50215,-0.04738c-0.25898,0.00001 -0.44216,0.05528 -0.54953,0.16581c-0.10738,0.11054 -0.16107,0.31741 -0.16107,0.62059l0,0.46426l0.98062,0l0,0.66322l-0.98062,0l0,4.36781l-0.84798,0zm2.44919,1.93756l-0.09474,-0.80061c0.18633,0.05053 0.34898,0.0758 0.48794,0.0758c0.18949,0 0.34108,-0.03158 0.45478,-0.09475c0.1137,-0.06316 0.20686,-0.15159 0.2795,-0.26528c0.05369,-0.08528 0.14054,-0.29688 0.26056,-0.63481c0.01578,-0.04737 0.04105,-0.11685 0.07579,-0.20844l-1.90914,-5.0405l0.91904,0l1.04695,2.91345c0.1358,0.36951 0.25739,0.75797 0.36477,1.16538c0.09791,-0.39162 0.21476,-0.77376 0.35057,-1.14643l1.07537,-2.9324l0.85271,0l-1.91387,5.1163c-0.20529,0.55269 -0.36478,0.93325 -0.47847,1.14169c-0.1516,0.28108 -0.3253,0.48716 -0.52111,0.61822c-0.19581,0.13107 -0.42951,0.1966 -0.70112,0.1966c-0.16423,0 -0.3474,-0.03474 -0.54953,-0.10422l0,0zm-33.30808,10.18997l0,-6.94491l2.61974,0c0.46109,0.00001 0.81323,0.02212 1.05642,0.06633c0.34108,0.05685 0.6269,0.16502 0.85745,0.3245c0.23055,0.1595 0.41609,0.38294 0.55664,0.67033c0.14053,0.28741 0.2108,0.60323 0.21081,0.94747c-0.00001,0.59059 -0.18792,1.09037 -0.56374,1.49936c-0.37584,0.40899 -1.05485,0.61348 -2.03705,0.61348l-1.78123,0l0,2.82344l-0.91904,0zm0.91904,-3.643l1.79544,0c0.59374,0.00001 1.01536,-0.11053 1.26487,-0.33161c0.24949,-0.22107 0.37424,-0.53215 0.37424,-0.93325c0,-0.29055 -0.07343,-0.53926 -0.22028,-0.74613c-0.14686,-0.20685 -0.3403,-0.34345 -0.58032,-0.40978c-0.15476,-0.04105 -0.44058,-0.06157 -0.85746,-0.06158l-1.77649,0l0,2.48235zm5.44318,3.643l0,-5.03103l0.76744,0l0,0.76271c0.19581,-0.35687 0.37662,-0.59216 0.54242,-0.70586c0.16581,-0.11369 0.3482,-0.17054 0.54717,-0.17055c0.28739,0.00001 0.57952,0.0916 0.8764,0.27477l-0.29371,0.79113c-0.20845,-0.12316 -0.41689,-0.18475 -0.62533,-0.18475c-0.18634,0 -0.35372,0.05606 -0.50216,0.16817c-0.14843,0.11212 -0.25423,0.26766 -0.3174,0.46663c-0.09474,0.30319 -0.14212,0.6348 -0.14212,0.99483l0,2.63395l-0.85271,0zm2.9324,-2.51551c0,-0.93167 0.25897,-1.62174 0.77692,-2.07021c0.43267,-0.37267 0.96009,-0.559 1.58226,-0.55901c0.69165,0.00001 1.25696,0.22661 1.69596,0.67981c0.43899,0.45321 0.65848,1.07932 0.65849,1.87835c-0.00001,0.64743 -0.09712,1.15669 -0.29135,1.52778c-0.19423,0.37109 -0.47689,0.65928 -0.84798,0.86456c-0.37109,0.20529 -0.77613,0.30793 -1.21512,0.30793c-0.70428,0 -1.27355,-0.22581 -1.7078,-0.67744c-0.43426,-0.45162 -0.65138,-1.10221 -0.65138,-1.95177l0,0zm0.8764,0c0,0.64427 0.14054,1.12669 0.42162,1.44725c0.28108,0.32056 0.6348,0.48084 1.06116,0.48083c0.4232,0.00001 0.77534,-0.16106 1.05642,-0.4832c0.28108,-0.32214 0.42162,-0.81324 0.42162,-1.47331c0,-0.62216 -0.14133,-1.09353 -0.42399,-1.41409c-0.28266,-0.32055 -0.63401,-0.48083 -1.05405,-0.48084c-0.42636,0.00001 -0.78008,0.1595 -1.06116,0.47847c-0.28108,0.31899 -0.42162,0.80061 -0.42162,1.44489l0,0zm8.1245,0.6727l0.83851,0.10895c-0.0916,0.57796 -0.32609,1.03037 -0.7035,1.35725c-0.37741,0.32687 -0.84087,0.49031 -1.3904,0.49031c-0.68849,0 -1.24197,-0.22502 -1.66043,-0.67507c-0.41846,-0.45004 -0.62769,-1.09511 -0.62769,-1.93519c0,-0.54321 0.09001,-1.01852 0.27002,-1.42594c0.18002,-0.4074 0.454,-0.71296 0.82193,-0.91667c0.36793,-0.2037 0.76823,-0.30555 1.20091,-0.30556c0.54637,0.00001 0.99325,0.13818 1.34066,0.41452c0.3474,0.27635 0.57005,0.66876 0.66796,1.17722l-0.82903,0.12791c-0.07896,-0.33792 -0.21871,-0.59216 -0.41925,-0.76271c-0.20055,-0.17054 -0.44294,-0.25581 -0.72718,-0.25581c-0.42952,0 -0.7785,0.15396 -1.04695,0.46189c-0.26845,0.30793 -0.40267,0.79508 -0.40267,1.46146c0,0.67586 0.12949,1.16696 0.38846,1.4733c0.25897,0.30635 0.5969,0.45953 1.01379,0.45952c0.33476,0.00001 0.61427,-0.10264 0.8385,-0.30792c0.22423,-0.20528 0.36635,-0.5211 0.42636,-0.94746l0,0zm5.01208,0.22265l0.88114,0.10896c-0.13896,0.51479 -0.39636,0.9143 -0.77218,1.19854c-0.37583,0.28424 -0.85588,0.42636 -1.44014,0.42636c-0.73587,0 -1.31935,-0.2266 -1.75044,-0.67981c-0.4311,-0.4532 -0.64665,-1.08879 -0.64665,-1.90677c0,-0.8464 0.21792,-1.5033 0.65375,-1.97072c0.43584,-0.46741 1.00115,-0.70112 1.69596,-0.70113c0.6727,0.00001 1.22223,0.22898 1.64859,0.68692c0.42635,0.45794 0.63953,1.10222 0.63954,1.93282c-0.00001,0.05054 -0.00159,0.12633 -0.00474,0.22739l-3.75196,0c0.03159,0.55269 0.18792,0.97589 0.469,1.2696c0.28108,0.29372 0.63164,0.44058 1.05168,0.44057c0.31266,0.00001 0.57953,-0.08211 0.80061,-0.24634c0.22107,-0.16422 0.39635,-0.42635 0.52584,-0.78639l0,0zm-2.79975,-1.37856l2.80923,0c-0.03791,-0.4232 -0.14528,-0.7406 -0.32214,-0.9522c-0.27161,-0.32845 -0.62375,-0.49268 -1.05642,-0.49268c-0.39162,0 -0.72087,0.13107 -0.98773,0.3932c-0.26687,0.26213 -0.41452,0.61269 -0.44294,1.05168l0,0zm4.41518,1.49699l0.84324,-0.13264c0.04737,0.33793 0.17923,0.5969 0.39557,0.77692c0.21633,0.18002 0.51873,0.27003 0.90719,0.27002c0.39162,0.00001 0.68217,-0.07974 0.87167,-0.23923c0.18949,-0.15949 0.28424,-0.34661 0.28424,-0.56137c0,-0.19265 -0.0837,-0.34425 -0.25108,-0.45478c-0.11686,-0.0758 -0.40741,-0.17213 -0.87166,-0.28898c-0.62533,-0.15791 -1.0588,-0.2945 -1.3004,-0.40978c-0.2416,-0.11527 -0.42478,-0.27476 -0.54953,-0.47847c-0.12475,-0.2037 -0.18712,-0.42872 -0.18712,-0.67507c0,-0.22423 0.05132,-0.43188 0.15396,-0.62295c0.10264,-0.19107 0.24239,-0.34977 0.41925,-0.4761c0.13265,-0.0979 0.31345,-0.18081 0.54243,-0.24871c0.22897,-0.0679 0.47452,-0.10185 0.73665,-0.10186c0.39477,0.00001 0.74139,0.05686 1.03984,0.17055c0.29845,0.1137 0.51873,0.26766 0.66086,0.46189c0.14211,0.19423 0.24002,0.45399 0.29371,0.77929l-0.83377,0.11369c-0.0379,-0.25897 -0.14765,-0.46109 -0.32924,-0.60638c-0.1816,-0.14527 -0.43821,-0.21791 -0.76982,-0.21791c-0.39162,0 -0.67112,0.06475 -0.8385,0.19423c-0.16739,0.12949 -0.25108,0.28108 -0.25108,0.45478c0,0.11054 0.03474,0.21002 0.10422,0.29845c0.06948,0.09159 0.17844,0.16739 0.32688,0.22739c0.08527,0.03159 0.33635,0.10423 0.75323,0.21792c0.60322,0.16107 1.02405,0.29293 1.2625,0.39557c0.23844,0.10264 0.42556,0.25187 0.56137,0.44767c0.1358,0.19581 0.2037,0.43899 0.2037,0.72955c0,0.28424 -0.0829,0.5519 -0.24871,0.80297c-0.16581,0.25108 -0.40504,0.44531 -0.7177,0.58269c-0.31267,0.13739 -0.66639,0.20608 -1.06116,0.20608c-0.65375,0 -1.15196,-0.13581 -1.49462,-0.40741c-0.34267,-0.27161 -0.56138,-0.67428 -0.65612,-1.20802l0,0zm4.85101,0l0.84324,-0.13264c0.04738,0.33793 0.17923,0.5969 0.39557,0.77692c0.21634,0.18002 0.51873,0.27003 0.9072,0.27002c0.39161,0.00001 0.68217,-0.07974 0.87166,-0.23923c0.18949,-0.15949 0.28424,-0.34661 0.28424,-0.56137c0,-0.19265 -0.08369,-0.34425 -0.25108,-0.45478c-0.11685,-0.0758 -0.40741,-0.17213 -0.87166,-0.28898c-0.62533,-0.15791 -1.05879,-0.2945 -1.3004,-0.40978c-0.2416,-0.11527 -0.42478,-0.27476 -0.54952,-0.47847c-0.12475,-0.2037 -0.18713,-0.42872 -0.18713,-0.67507c0,-0.22423 0.05132,-0.43188 0.15396,-0.62295c0.10265,-0.19107 0.2424,-0.34977 0.41926,-0.4761c0.13264,-0.0979 0.31345,-0.18081 0.54242,-0.24871c0.22897,-0.0679 0.47452,-0.10185 0.73665,-0.10186c0.39478,0.00001 0.74139,0.05686 1.03984,0.17055c0.29845,0.1137 0.51874,0.26766 0.66086,0.46189c0.14212,0.19423 0.24002,0.45399 0.29371,0.77929l-0.83376,0.11369c-0.03791,-0.25897 -0.14765,-0.46109 -0.32925,-0.60638c-0.1816,-0.14527 -0.4382,-0.21791 -0.76981,-0.21791c-0.39162,0 -0.67112,0.06475 -0.83851,0.19423c-0.16738,0.12949 -0.25108,0.28108 -0.25108,0.45478c0,0.11054 0.03474,0.21002 0.10423,0.29845c0.06948,0.09159 0.17843,0.16739 0.32687,0.22739c0.08527,0.03159 0.33635,0.10423 0.75323,0.21792c0.60322,0.16107 1.02405,0.29293 1.2625,0.39557c0.23844,0.10264 0.42556,0.25187 0.56137,0.44767c0.1358,0.19581 0.2037,0.43899 0.20371,0.72955c-0.00001,0.28424 -0.08291,0.5519 -0.24871,0.80297c-0.16581,0.25108 -0.40505,0.44531 -0.71771,0.58269c-0.31266,0.13739 -0.66638,0.20608 -1.06116,0.20608c-0.65375,0 -1.15195,-0.13581 -1.49462,-0.40741c-0.34267,-0.27161 -0.56137,-0.67428 -0.65612,-1.20802l0,0zm8.63613,-0.11843l0.88115,0.10896c-0.13897,0.51479 -0.39636,0.9143 -0.77219,1.19854c-0.37583,0.28424 -0.85588,0.42636 -1.44014,0.42636c-0.73587,0 -1.31935,-0.2266 -1.75044,-0.67981c-0.4311,-0.4532 -0.64665,-1.08879 -0.64665,-1.90677c0,-0.8464 0.21792,-1.5033 0.65375,-1.97072c0.43584,-0.46741 1.00116,-0.70112 1.69596,-0.70113c0.6727,0.00001 1.22223,0.22898 1.64859,0.68692c0.42636,0.45794 0.63953,1.10222 0.63954,1.93282c-0.00001,0.05054 -0.00158,0.12633 -0.00474,0.22739l-3.75195,0c0.03158,0.55269 0.18791,0.97589 0.46899,1.2696c0.28108,0.29372 0.63164,0.44058 1.05169,0.44057c0.31265,0.00001 0.57952,-0.08211 0.8006,-0.24634c0.22107,-0.16422 0.39635,-0.42635 0.52584,-0.78639l0,0zm-2.79975,-1.37856l2.80923,0c-0.0379,-0.4232 -0.14528,-0.7406 -0.32214,-0.9522c-0.27161,-0.32845 -0.62375,-0.49268 -1.05642,-0.49268c-0.39162,0 -0.72086,0.13107 -0.98773,0.3932c-0.26687,0.26213 -0.41452,0.61269 -0.44294,1.05168l0,0zm4.41518,1.49699l0.84324,-0.13264c0.04737,0.33793 0.17923,0.5969 0.39557,0.77692c0.21633,0.18002 0.51873,0.27003 0.9072,0.27002c0.39161,0.00001 0.68217,-0.07974 0.87166,-0.23923c0.18949,-0.15949 0.28424,-0.34661 0.28424,-0.56137c0,-0.19265 -0.0837,-0.34425 -0.25108,-0.45478c-0.11685,-0.0758 -0.40741,-0.17213 -0.87166,-0.28898c-0.62533,-0.15791 -1.0588,-0.2945 -1.3004,-0.40978c-0.2416,-0.11527 -0.42478,-0.27476 -0.54953,-0.47847c-0.12475,-0.2037 -0.18712,-0.42872 -0.18712,-0.67507c0,-0.22423 0.05132,-0.43188 0.15396,-0.62295c0.10264,-0.19107 0.24239,-0.34977 0.41926,-0.4761c0.13264,-0.0979 0.31345,-0.18081 0.54242,-0.24871c0.22897,-0.0679 0.47452,-0.10185 0.73665,-0.10186c0.39477,0.00001 0.74139,0.05686 1.03984,0.17055c0.29845,0.1137 0.51873,0.26766 0.66086,0.46189c0.14211,0.19423 0.24002,0.45399 0.29371,0.77929l-0.83377,0.11369c-0.0379,-0.25897 -0.14765,-0.46109 -0.32924,-0.60638c-0.1816,-0.14527 -0.4382,-0.21791 -0.76981,-0.21791c-0.39162,0 -0.67113,0.06475 -0.83851,0.19423c-0.16739,0.12949 -0.25108,0.28108 -0.25108,0.45478c0,0.11054 0.03474,0.21002 0.10422,0.29845c0.06948,0.09159 0.17844,0.16739 0.32688,0.22739c0.08527,0.03159 0.33635,0.10423 0.75323,0.21792c0.60322,0.16107 1.02405,0.29293 1.2625,0.39557c0.23844,0.10264 0.42556,0.25187 0.56137,0.44767c0.1358,0.19581 0.2037,0.43899 0.2037,0.72955c0,0.28424 -0.0829,0.5519 -0.2487,0.80297c-0.16581,0.25108 -0.40505,0.44531 -0.71771,0.58269c-0.31266,0.13739 -0.66638,0.20608 -1.06116,0.20608c-0.65375,0 -1.15196,-0.13581 -1.49462,-0.40741c-0.34267,-0.27161 -0.56137,-0.67428 -0.65612,-1.20802l0,0z" fill="#ffffff" id="text2481" stroke-width="1px"/>
    <path d="m25.30887,125.19885l0,-6.12535l-2.28812,0l0,-0.81955l5.50476,0l0,0.81955l-2.2976,0l0,6.12535l-0.91904,0zm7.49918,-1.62016l0.88114,0.10896c-0.13897,0.51479 -0.39636,0.9143 -0.77219,1.19854c-0.37583,0.28424 -0.85588,0.42636 -1.44014,0.42636c-0.73587,0 -1.31935,-0.2266 -1.75044,-0.6798c-0.4311,-0.45321 -0.64664,-1.0888 -0.64664,-1.90678c0,-0.84639 0.21791,-1.5033 0.65375,-1.97072c0.43583,-0.46741 1.00115,-0.70112 1.69596,-0.70112c0.67269,0 1.22222,0.22897 1.64858,0.68691c0.42636,0.45794 0.63954,1.10222 0.63954,1.93282c0,0.05054 -0.00158,0.12633 -0.00474,0.2274l-3.75195,0c0.03158,0.55268 0.18791,0.97588 0.46899,1.2696c0.28108,0.29371 0.63164,0.44057 1.05169,0.44057c0.31266,0 0.57952,-0.08212 0.8006,-0.24634c0.22107,-0.16423 0.39635,-0.42636 0.52585,-0.7864l0,0zm-2.79976,-1.37856l2.80923,0c-0.0379,-0.42319 -0.14528,-0.74059 -0.32214,-0.9522c-0.27161,-0.32845 -0.62375,-0.49268 -1.05642,-0.49268c-0.39162,0 -0.72086,0.13107 -0.98773,0.3932c-0.26687,0.26213 -0.41452,0.61269 -0.44294,1.05168l0,0zm4.41518,1.49699l0.84324,-0.13264c0.04738,0.33793 0.17923,0.5969 0.39557,0.77692c0.21634,0.18002 0.51873,0.27003 0.9072,0.27003c0.39161,0 0.68217,-0.07975 0.87166,-0.23924c0.18949,-0.15949 0.28424,-0.34661 0.28424,-0.56137c0,-0.19265 -0.08369,-0.34424 -0.25108,-0.45478c-0.11685,-0.0758 -0.40741,-0.17212 -0.87166,-0.28898c-0.62533,-0.15791 -1.05879,-0.2945 -1.3004,-0.40978c-0.2416,-0.11527 -0.42478,-0.27476 -0.54953,-0.47847c-0.12475,-0.2037 -0.18712,-0.42872 -0.18712,-0.67506c0,-0.22423 0.05132,-0.43188 0.15396,-0.62296c0.10264,-0.19107 0.2424,-0.34977 0.41926,-0.4761c0.13264,-0.0979 0.31345,-0.1808 0.54242,-0.24871c0.22897,-0.0679 0.47452,-0.10185 0.73665,-0.10185c0.39478,0 0.74139,0.05685 1.03984,0.17054c0.29845,0.1137 0.51874,0.26766 0.66086,0.46189c0.14211,0.19423 0.24002,0.454 0.29371,0.77929l-0.83377,0.11369c-0.0379,-0.25897 -0.14764,-0.46109 -0.32924,-0.60637c-0.1816,-0.14528 -0.4382,-0.21792 -0.76981,-0.21792c-0.39162,0 -0.67112,0.06475 -0.83851,0.19423c-0.16738,0.12949 -0.25108,0.28109 -0.25108,0.45478c0,0.11054 0.03474,0.21003 0.10422,0.29845c0.06948,0.0916 0.17844,0.16739 0.32688,0.2274c0.08527,0.03158 0.33635,0.10422 0.75323,0.21791c0.60322,0.16107 1.02405,0.29293 1.2625,0.39557c0.23844,0.10264 0.42556,0.25187 0.56137,0.44767c0.1358,0.19582 0.2037,0.439 0.20371,0.72955c-0.00001,0.28424 -0.08291,0.5519 -0.24871,0.80298c-0.16581,0.25107 -0.40505,0.4453 -0.71771,0.58269c-0.31266,0.13738 -0.66638,0.20607 -1.06116,0.20607c-0.65375,0 -1.15196,-0.1358 -1.49462,-0.40741c-0.34267,-0.2716 -0.56137,-0.67428 -0.65612,-1.20802l0,0zm7.05387,0.73903l0.12317,0.75323c-0.24003,0.05053 -0.45479,0.0758 -0.64428,0.0758c-0.3095,0 -0.54953,-0.04896 -0.72007,-0.14686c-0.17054,-0.0979 -0.29056,-0.2266 -0.36004,-0.38609c-0.06948,-0.15949 -0.10422,-0.49505 -0.10422,-1.00668l0,-2.8945l-0.62532,0l0,-0.66323l0.62532,0l0,-1.24591l0.84798,-0.51163l0,1.75754l0.85746,0l0,0.66323l-0.85746,0l0,2.94187c0,0.24319 0.015,0.39952 0.04501,0.469c0.03,0.06948 0.07895,0.12475 0.14685,0.1658c0.0679,0.04106 0.16502,0.06159 0.29135,0.06159c0.09474,0 0.21949,-0.01106 0.37425,-0.03316l0,0zm7.4897,-0.05685c-0.28109,0.31266 -0.58743,0.54716 -0.91904,0.70349c-0.33162,0.15633 -0.69007,0.2345 -1.07537,0.2345c-0.7106,0 -1.27434,-0.24003 -1.69123,-0.72007c-0.33793,-0.39162 -0.50689,-0.82903 -0.50689,-1.31224c0,-0.42952 0.13817,-0.81719 0.41452,-1.16301c0.27634,-0.34582 0.68927,-0.6498 1.2388,-0.91194c-0.31266,-0.36003 -0.5211,-0.65216 -0.62532,-0.8764c-0.10422,-0.22423 -0.15633,-0.44057 -0.15633,-0.64901c0,-0.41688 0.16343,-0.77929 0.49031,-1.08722c0.32687,-0.30792 0.73823,-0.46188 1.23407,-0.46189c0.47373,0.00001 0.8614,0.14529 1.16301,0.43584c0.30161,0.29056 0.45241,0.63954 0.45242,1.04694c-0.00001,0.66008 -0.43742,1.22382 -1.31224,1.69123l1.24591,1.587c0.14212,-0.27792 0.25266,-0.60006 0.33162,-0.96641l0.88587,0.18949c-0.15159,0.60638 -0.35688,1.10537 -0.61585,1.49699c0.31898,0.4232 0.68059,0.7785 1.08485,1.0659l-0.57322,0.67743c-0.34425,-0.22107 -0.69955,-0.54795 -1.06589,-0.98062l0,0zm-1.73386,-3.61931c0.36951,-0.21791 0.60874,-0.40899 0.7177,-0.57322c0.10896,-0.16422 0.16344,-0.34582 0.16344,-0.54479c0,-0.23686 -0.07501,-0.4303 -0.22502,-0.58032c-0.15002,-0.15001 -0.33714,-0.22502 -0.56137,-0.22502c-0.23056,0 -0.42242,0.07422 -0.57559,0.22265c-0.15317,0.14844 -0.22976,0.33004 -0.22976,0.54479c0,0.10739 0.02763,0.22029 0.0829,0.33872c0.05527,0.11844 0.13817,0.24398 0.24871,0.37662l0.37899,0.44057zm1.19854,2.94661l-1.56331,-1.93756c-0.46111,0.27476 -0.77219,0.52979 -0.93326,0.76507c-0.16107,0.23529 -0.2416,0.46821 -0.2416,0.69876c0,0.28108 0.11212,0.57321 0.33635,0.8764c0.22423,0.30319 0.54163,0.45478 0.9522,0.45478c0.25581,0 0.52031,-0.07974 0.7935,-0.23923c0.27318,-0.15949 0.49189,-0.36556 0.65612,-0.61822l0,0zm6.00218,1.49225l0,-6.9449l0.91904,0l0,6.9449l-0.91904,0zm2.42551,0l0,-5.03103l0.76271,0l0,0.70586c0.15791,-0.24633 0.36793,-0.44451 0.63006,-0.59453c0.26213,-0.15001 0.56058,-0.22502 0.89536,-0.22502c0.37266,0 0.67822,0.07738 0.91667,0.23213c0.23844,0.15475 0.40661,0.37109 0.50452,0.64901c0.39793,-0.58742 0.91588,-0.88114 1.55384,-0.88114c0.49899,0 0.88271,0.13817 1.15117,0.41451c0.26844,0.27635 0.40266,0.70192 0.40267,1.27671l0,3.4535l-0.84798,0l0,-3.16926c-0.00001,-0.34108 -0.02764,-0.58664 -0.0829,-0.73665c-0.05528,-0.15002 -0.15555,-0.27082 -0.30082,-0.36241c-0.14529,-0.09158 -0.31583,-0.13738 -0.51163,-0.13738c-0.35373,0 -0.64744,0.11765 -0.88114,0.35293c-0.23372,0.23529 -0.35057,0.61191 -0.35056,1.12985l0,2.92292l-0.85272,0l0,-3.26874c-0.00001,-0.37899 -0.06949,-0.66323 -0.20844,-0.85272c-0.13897,-0.18949 -0.36636,-0.28424 -0.68218,-0.28424c-0.24002,0 -0.46189,0.06317 -0.66559,0.18949c-0.20371,0.12633 -0.35135,0.31109 -0.44294,0.55427c-0.09159,0.24318 -0.13738,0.59374 -0.13738,1.05168l0,2.61026l-0.85272,0zm8.09134,1.92809l0,-6.95912l0.77692,0l0,0.65375c0.18317,-0.25581 0.39004,-0.44767 0.62059,-0.57558c0.23055,-0.1279 0.51005,-0.19186 0.8385,-0.19186c0.42952,0 0.8085,0.11054 1.13696,0.33161c0.32845,0.22108 0.57637,0.53295 0.74376,0.93562c0.16738,0.40268 0.25107,0.84403 0.25108,1.32408c-0.00001,0.51479 -0.09239,0.97826 -0.27714,1.3904c-0.18476,0.41215 -0.4532,0.72797 -0.80534,0.94747c-0.35214,0.21949 -0.72244,0.32924 -1.1109,0.32924c-0.28424,0 -0.53927,-0.06001 -0.76508,-0.18002c-0.22581,-0.12001 -0.41136,-0.2716 -0.55663,-0.45478l0,2.44919l-0.85272,0zm0.77218,-4.41518c0,0.64744 0.13107,1.12591 0.3932,1.43541c0.26213,0.30951 0.57953,0.46426 0.9522,0.46426c0.37898,0 0.70349,-0.16028 0.97352,-0.48084c0.27002,-0.32056 0.40504,-0.81719 0.40504,-1.48989c0,-0.64111 -0.13186,-1.12116 -0.39557,-1.44014c-0.26371,-0.31898 -0.57874,-0.47847 -0.94509,-0.47847c-0.3632,0 -0.68455,0.16976 -0.96404,0.50926c-0.27951,0.33951 -0.41926,0.83298 -0.41926,1.48041l0,0zm4.60941,2.48709l0,-6.9449l0.85272,0l0,6.9449l-0.85272,0zm5.6232,-1.62016l0.88114,0.10896c-0.13897,0.51479 -0.39636,0.9143 -0.77219,1.19854c-0.37583,0.28424 -0.85587,0.42636 -1.44014,0.42636c-0.73587,0 -1.31934,-0.2266 -1.75044,-0.6798c-0.4311,-0.45321 -0.64664,-1.0888 -0.64664,-1.90678c0,-0.84639 0.21791,-1.5033 0.65375,-1.97072c0.43583,-0.46741 1.00115,-0.70112 1.69596,-0.70112c0.67269,0 1.22222,0.22897 1.64858,0.68691c0.42636,0.45794 0.63954,1.10222 0.63954,1.93282c0,0.05054 -0.00158,0.12633 -0.00474,0.2274l-3.75195,0c0.03158,0.55268 0.18791,0.97588 0.46899,1.2696c0.28108,0.29371 0.63164,0.44057 1.05169,0.44057c0.31266,0 0.57953,-0.08212 0.8006,-0.24634c0.22108,-0.16423 0.39636,-0.42636 0.52585,-0.7864l0,0zm-2.79976,-1.37856l2.80923,0c-0.0379,-0.42319 -0.14528,-0.74059 -0.32214,-0.9522c-0.27161,-0.32845 -0.62375,-0.49268 -1.05642,-0.49268c-0.39162,0 -0.72086,0.13107 -0.98773,0.3932c-0.26687,0.26213 -0.41452,0.61269 -0.44294,1.05168l0,0zm4.75627,2.99872l0,-5.03103l0.76271,0l0,0.70586c0.15791,-0.24633 0.36793,-0.44451 0.63006,-0.59453c0.26213,-0.15001 0.56058,-0.22502 0.89535,-0.22502c0.37267,0 0.67823,0.07738 0.91668,0.23213c0.23844,0.15475 0.40661,0.37109 0.50452,0.64901c0.39793,-0.58742 0.91588,-0.88114 1.55384,-0.88114c0.49899,0 0.88271,0.13817 1.15117,0.41451c0.26844,0.27635 0.40266,0.70192 0.40267,1.27671l0,3.4535l-0.84798,0l0,-3.16926c-0.00001,-0.34108 -0.02764,-0.58664 -0.0829,-0.73665c-0.05528,-0.15002 -0.15555,-0.27082 -0.30082,-0.36241c-0.14529,-0.09158 -0.31583,-0.13738 -0.51163,-0.13738c-0.35373,0 -0.64744,0.11765 -0.88114,0.35293c-0.23372,0.23529 -0.35057,0.61191 -0.35057,1.12985l0,2.92292l-0.85271,0l0,-3.26874c-0.00001,-0.37899 -0.06949,-0.66323 -0.20844,-0.85272c-0.13897,-0.18949 -0.36636,-0.28424 -0.68218,-0.28424c-0.24003,0 -0.46189,0.06317 -0.66559,0.18949c-0.20371,0.12633 -0.35135,0.31109 -0.44294,0.55427c-0.09159,0.24318 -0.13738,0.59374 -0.13738,1.05168l0,2.61026l-0.85272,0zm11.53537,-1.62016l0.88114,0.10896c-0.13897,0.51479 -0.39636,0.9143 -0.77218,1.19854c-0.37583,0.28424 -0.85588,0.42636 -1.44015,0.42636c-0.73586,0 -1.31934,-0.2266 -1.75044,-0.6798c-0.43109,-0.45321 -0.64664,-1.0888 -0.64664,-1.90678c0,-0.84639 0.21792,-1.5033 0.65375,-1.97072c0.43583,-0.46741 1.00115,-0.70112 1.69596,-0.70112c0.67269,0 1.22222,0.22897 1.64859,0.68691c0.42635,0.45794 0.63953,1.10222 0.63953,1.93282c0,0.05054 -0.00158,0.12633 -0.00473,0.2274l-3.75196,0c0.03158,0.55268 0.18791,0.97588 0.469,1.2696c0.28107,0.29371 0.63164,0.44057 1.05168,0.44057c0.31266,0 0.57953,-0.08212 0.80061,-0.24634c0.22107,-0.16423 0.39635,-0.42636 0.52584,-0.7864l0,0zm-2.79976,-1.37856l2.80923,0c-0.0379,-0.42319 -0.14528,-0.74059 -0.32213,-0.9522c-0.27161,-0.32845 -0.62375,-0.49268 -1.05643,-0.49268c-0.39162,0 -0.72086,0.13107 -0.98773,0.3932c-0.26687,0.26213 -0.41451,0.61269 -0.44294,1.05168l0,0zm4.75627,2.99872l0,-5.03103l0.76745,0l0,0.71534c0.36951,-0.55268 0.90324,-0.82903 1.60121,-0.82903c0.30319,0 0.5819,0.05448 0.83614,0.16343c0.25423,0.10897 0.44451,0.25188 0.57084,0.42873c0.12633,0.17687 0.21476,0.38689 0.26529,0.63007c0.03158,0.15791 0.04737,0.43425 0.04738,0.82903l0,3.09346l-0.85272,0l0,-3.0603c0,-0.3474 -0.03317,-0.60717 -0.09948,-0.77929c-0.06633,-0.17212 -0.18397,-0.3095 -0.35293,-0.41215c-0.16897,-0.10264 -0.36715,-0.15396 -0.59454,-0.15396c-0.36319,0 -0.67665,0.11528 -0.94035,0.34582c-0.26372,0.23056 -0.39557,0.66797 -0.39557,1.31224l0,2.74764l-0.85272,0zm7.26231,-0.7627l0.12317,0.75323c-0.24003,0.05053 -0.45478,0.0758 -0.64427,0.0758c-0.30951,0 -0.54953,-0.04896 -0.72008,-0.14686c-0.17054,-0.0979 -0.29055,-0.2266 -0.36003,-0.38609c-0.06948,-0.15949 -0.10422,-0.49505 -0.10422,-1.00668l0,-2.8945l-0.62533,0l0,-0.66323l0.62533,0l0,-1.24591l0.84798,-0.51163l0,1.75754l0.85745,0l0,0.66323l-0.85745,0l0,2.94187c-0.00001,0.24319 0.015,0.39952 0.045,0.469c0.03,0.06948 0.07895,0.12475 0.14686,0.1658c0.0679,0.04106 0.16501,0.06159 0.29134,0.06159c0.09475,0 0.2195,-0.01106 0.37425,-0.03316l0,0zm-48.55277,12.89024l0,-6.12535l-2.28813,0l0,-0.81956l5.50477,0l0,0.81956l-2.2976,0l0,6.12535l-0.91904,0zm3.73774,-2.51552c0,-0.93167 0.25897,-1.62173 0.77692,-2.07021c0.43268,-0.37266 0.9601,-0.55899 1.58227,-0.559c0.69164,0.00001 1.25696,0.22661 1.69596,0.67981c0.43898,0.4532 0.65848,1.07932 0.65848,1.87834c0,0.64744 -0.09712,1.1567 -0.29134,1.52779c-0.19424,0.37109 -0.4769,0.65928 -0.84798,0.86456c-0.37109,0.20528 -0.77614,0.30792 -1.21512,0.30792c-0.70429,0 -1.27355,-0.22581 -1.70781,-0.67743c-0.43425,-0.45163 -0.65138,-1.10222 -0.65138,-1.95178l0,0zm0.87641,0c-0.00001,0.64428 0.14054,1.1267 0.42162,1.44725c0.28108,0.32056 0.6348,0.48084 1.06116,0.48084c0.42319,0 0.77533,-0.16107 1.05642,-0.48321c0.28108,-0.32213 0.42162,-0.81323 0.42162,-1.4733c0,-0.62217 -0.14133,-1.09353 -0.42399,-1.41409c-0.28266,-0.32055 -0.63401,-0.48083 -1.05405,-0.48084c-0.42636,0.00001 -0.78008,0.1595 -1.06116,0.47847c-0.28108,0.31898 -0.42163,0.80061 -0.42162,1.44488l0,0zm4.50992,0.4311l0,-0.85746l2.61974,0l0,0.85746l-2.61974,0zm3.643,2.08442l0,-6.94491l2.60553,0c0.53057,0.00001 0.95614,0.07028 1.2767,0.21081c0.32056,0.14055 0.57163,0.35689 0.75324,0.64901c0.18159,0.29214 0.27239,0.5977 0.27239,0.91667c0,0.29688 -0.08054,0.57638 -0.2416,0.83851c-0.16107,0.26214 -0.40426,0.47374 -0.72955,0.6348c0.42004,0.12317 0.74297,0.3332 0.96878,0.63006c0.22581,0.29688 0.33872,0.64744 0.33872,1.05169c0,0.3253 -0.0687,0.62769 -0.20607,0.90719c-0.13739,0.27951 -0.30714,0.49506 -0.50926,0.64665c-0.20213,0.15159 -0.45558,0.26608 -0.76034,0.34345c-0.30477,0.07738 -0.67823,0.11607 -1.12038,0.11607l-2.64816,0zm0.91904,-4.02672l1.50173,0c0.40741,0 0.69954,-0.02684 0.8764,-0.08054c0.23371,-0.06947 0.40978,-0.18475 0.52822,-0.34582c0.11842,-0.16106 0.17764,-0.36319 0.17764,-0.60638c0,-0.23054 -0.05527,-0.43346 -0.1658,-0.60874c-0.11054,-0.17528 -0.26845,-0.29529 -0.47373,-0.36004c-0.20529,-0.06474 -0.55743,-0.09711 -1.05643,-0.09711l-1.38803,0l0,2.09863zm0,3.20716l1.72912,0c0.29687,0 0.50531,-0.01105 0.62533,-0.03316c0.21159,-0.0379 0.38845,-0.10106 0.53058,-0.18949c0.14211,-0.08843 0.25897,-0.21713 0.35056,-0.38609c0.09158,-0.16897 0.13738,-0.36398 0.13738,-0.58506c0,-0.25897 -0.06633,-0.48399 -0.19897,-0.67507c-0.13265,-0.19107 -0.31661,-0.32529 -0.55189,-0.40267c-0.23529,-0.07737 -0.57401,-0.11606 -1.01616,-0.11607l-1.60595,0l0,2.38761zm8.93458,-0.8006l0.88114,0.10895c-0.13896,0.51479 -0.39636,0.91431 -0.77218,1.19855c-0.37583,0.28423 -0.85588,0.42635 -1.44015,0.42635c-0.73586,0 -1.31934,-0.2266 -1.75043,-0.6798c-0.4311,-0.4532 -0.64665,-1.08879 -0.64665,-1.90677c0,-0.8464 0.21792,-1.50331 0.65375,-1.97073c0.43583,-0.46741 1.00115,-0.70111 1.69596,-0.70112c0.6727,0.00001 1.22223,0.22898 1.64859,0.68691c0.42635,0.45795 0.63953,1.10222 0.63954,1.93283c-0.00001,0.05053 -0.00159,0.12633 -0.00474,0.22739l-3.75196,0c0.03158,0.55269 0.18792,0.97589 0.469,1.2696c0.28108,0.29372 0.63164,0.44057 1.05168,0.44057c0.31266,0 0.57953,-0.08211 0.80061,-0.24634c0.22107,-0.16423 0.39635,-0.42636 0.52584,-0.78639l0,0zm-2.79975,-1.37856l2.80923,0c-0.03791,-0.4232 -0.14529,-0.7406 -0.32214,-0.9522c-0.27161,-0.32845 -0.62375,-0.49268 -1.05642,-0.49269c-0.39162,0.00001 -0.72087,0.13107 -0.98773,0.3932c-0.26687,0.26214 -0.41452,0.6127 -0.44294,1.05169l0,0z" fill="#ffffff" id="text2487" stroke-width="1px"/>
    <path d="m193.88495,114.76267l0,-6.94491l3.07926,0c0.619,0.00001 1.08958,0.06238 1.41172,0.18712c0.32213,0.12476 0.57952,0.34504 0.77218,0.66086c0.19265,0.31583 0.28897,0.66481 0.28898,1.04695c-0.00001,0.49268 -0.1595,0.90799 -0.47847,1.24591c-0.31899,0.33793 -0.81167,0.55269 -1.47804,0.64428c0.24317,0.11685 0.42793,0.23213 0.55426,0.34582c0.26844,0.24634 0.52268,0.55427 0.76271,0.92378l1.20802,1.89019l-1.15591,0l-0.91904,-1.44489c-0.26845,-0.41688 -0.48953,-0.73586 -0.66322,-0.95693c-0.17371,-0.22108 -0.32925,-0.37583 -0.46663,-0.46426c-0.13739,-0.08843 -0.27714,-0.15001 -0.41925,-0.18476c-0.10423,-0.0221 -0.27477,-0.03315 -0.51163,-0.03316l-1.0659,0l0,3.084l-0.91904,0zm0.91904,-3.87987l1.97546,0c0.42004,0.00001 0.74849,-0.04342 0.98536,-0.13027c0.23687,-0.08685 0.41688,-0.22581 0.54006,-0.41689c0.12316,-0.19106 0.18475,-0.39872 0.18475,-0.62295c0,-0.32845 -0.11922,-0.59848 -0.35766,-0.81009c-0.23845,-0.21159 -0.61507,-0.31739 -1.12985,-0.3174l-2.19812,0l0,2.2976zm9.41305,2.2597l0.88114,0.10896c-0.13896,0.51479 -0.39636,0.91431 -0.77218,1.19854c-0.37583,0.28424 -0.85588,0.42636 -1.44014,0.42636c-0.73587,0 -1.31935,-0.2266 -1.75044,-0.6798c-0.4311,-0.45321 -0.64665,-1.08879 -0.64665,-1.90677c0,-0.8464 0.21792,-1.50331 0.65375,-1.97073c0.43583,-0.46741 1.00115,-0.70112 1.69596,-0.70112c0.6727,0 1.22223,0.22897 1.64859,0.68691c0.42635,0.45795 0.63953,1.10222 0.63954,1.93283c-0.00001,0.05053 -0.00159,0.12633 -0.00474,0.22739l-3.75196,0c0.03158,0.55269 0.18792,0.97589 0.469,1.2696c0.28108,0.29371 0.63164,0.44057 1.05168,0.44057c0.31266,0 0.57953,-0.08211 0.80061,-0.24634c0.22107,-0.16423 0.39635,-0.42636 0.52584,-0.7864l0,0zm-2.79975,-1.37856l2.80923,0c-0.03791,-0.42319 -0.14529,-0.74059 -0.32214,-0.9522c-0.27161,-0.32845 -0.62375,-0.49267 -1.05642,-0.49268c-0.39162,0.00001 -0.72087,0.13107 -0.98773,0.3932c-0.26687,0.26214 -0.41452,0.6127 -0.44294,1.05168l0,0zm6.15377,2.99873l-1.91387,-5.03103l0.90009,0l1.08011,3.01293c0.11685,0.3253 0.22423,0.66323 0.32213,1.01379c0.0758,-0.26529 0.1816,-0.58427 0.3174,-0.95694l1.11801,-3.06978l0.8764,0l-1.9044,5.03103l-0.79587,0zm3.45825,-5.96429l0,-0.98062l0.85271,0l0,0.98062l-0.85271,0zm0,5.96429l0,-5.03103l0.85271,0l0,5.03103l-0.85271,0zm5.59951,-1.62017l0.88114,0.10896c-0.13897,0.51479 -0.39636,0.91431 -0.77219,1.19854c-0.37583,0.28424 -0.85588,0.42636 -1.44014,0.42636c-0.73587,0 -1.31935,-0.2266 -1.75044,-0.6798c-0.4311,-0.45321 -0.64664,-1.08879 -0.64664,-1.90677c0,-0.8464 0.21791,-1.50331 0.65375,-1.97073c0.43583,-0.46741 1.00115,-0.70112 1.69596,-0.70112c0.67269,0 1.22222,0.22897 1.64858,0.68691c0.42636,0.45795 0.63954,1.10222 0.63954,1.93283c0,0.05053 -0.00158,0.12633 -0.00474,0.22739l-3.75195,0c0.03158,0.55269 0.18791,0.97589 0.46899,1.2696c0.28108,0.29371 0.63164,0.44057 1.05169,0.44057c0.31266,0 0.57952,-0.08211 0.8006,-0.24634c0.22107,-0.16423 0.39635,-0.42636 0.52585,-0.7864l0,0zm-2.79976,-1.37856l2.80923,0c-0.0379,-0.42319 -0.14528,-0.74059 -0.32214,-0.9522c-0.27161,-0.32845 -0.62375,-0.49267 -1.05642,-0.49268c-0.39162,0.00001 -0.72086,0.13107 -0.98773,0.3932c-0.26687,0.26214 -0.41452,0.6127 -0.44294,1.05168l0,0zm5.68478,2.99873l-1.53963,-5.03103l0.88115,0l0.8006,2.90397l0.29845,1.08011c0.01263,-0.05369 0.09948,-0.39951 0.26056,-1.03747l0.8006,-2.94661l0.87641,0l0.75323,2.91818l0.25108,0.96168l0.28897,-0.97115l0.8622,-2.90871l0.82903,0l-1.57279,5.03103l-0.88588,0l-0.80061,-3.01294l-0.19423,-0.85745l-1.01852,3.87039l-0.89062,0zm6.30537,0l0,-0.97115l0.97115,0l0,0.97115c0,0.35687 -0.06316,0.64506 -0.18949,0.86456c-0.12633,0.21949 -0.32688,0.38925 -0.60164,0.50926l-0.23687,-0.36477c0.18002,-0.07896 0.31267,-0.19502 0.39794,-0.3482c0.08527,-0.15317 0.13264,-0.37346 0.14212,-0.66085l-0.48321,0zm-25.78048,5.18262l0.91904,0l0,4.01251c-0.00001,0.69797 -0.07896,1.25223 -0.23687,1.6628c-0.15792,0.41057 -0.44294,0.74455 -0.85508,1.00194c-0.41216,0.2574 -0.953,0.38609 -1.62254,0.38609c-0.65059,0 -1.18275,-0.11211 -1.59647,-0.33635c-0.41373,-0.22423 -0.70902,-0.54873 -0.88588,-0.97351c-0.17686,-0.42478 -0.26529,-1.0051 -0.26529,-1.74097l0,-4.01251l0.91904,0l0,4.00777c0,0.60322 0.05606,1.04774 0.16817,1.33356c0.11212,0.28582 0.30477,0.5061 0.57796,0.66085c0.27318,0.15476 0.60716,0.23213 1.00194,0.23213c0.67585,0 1.15748,-0.15317 1.44488,-0.45952c0.28739,-0.30634 0.43109,-0.89535 0.4311,-1.76702l0,-4.00777zm2.34497,8.873l0,-6.95912l0.77692,0l0,0.65375c0.18317,-0.25581 0.39004,-0.44767 0.62059,-0.57559c0.23055,-0.1279 0.51005,-0.19185 0.8385,-0.19186c0.42952,0.00001 0.8085,0.11055 1.13696,0.33162c0.32845,0.22108 0.57637,0.53295 0.74376,0.93562c0.16738,0.40267 0.25107,0.84403 0.25108,1.32408c-0.00001,0.51479 -0.09239,0.97825 -0.27714,1.3904c-0.18476,0.41215 -0.4532,0.72797 -0.80534,0.94746c-0.35214,0.2195 -0.72244,0.32925 -1.1109,0.32925c-0.28424,0 -0.53927,-0.06001 -0.76508,-0.18002c-0.22581,-0.12001 -0.41136,-0.27161 -0.55663,-0.45478l0,2.44919l-0.85272,0zm0.77218,-4.41518c0,0.64743 0.13107,1.1259 0.3932,1.43541c0.26213,0.3095 0.57953,0.46425 0.9522,0.46425c0.37898,0 0.70349,-0.16028 0.97352,-0.48083c0.27002,-0.32056 0.40504,-0.81719 0.40504,-1.48989c0,-0.64111 -0.13186,-1.12116 -0.39557,-1.44015c-0.26371,-0.31897 -0.57874,-0.47846 -0.94509,-0.47846c-0.3632,0 -0.68455,0.16975 -0.96404,0.50926c-0.27951,0.33951 -0.41926,0.83298 -0.41926,1.48041l0,0zm7.89237,2.48709l0,-0.6348c-0.31898,0.499 -0.78797,0.7485 -1.40698,0.7485c-0.40109,0 -0.76981,-0.11054 -1.10616,-0.33162c-0.33635,-0.22107 -0.59691,-0.52979 -0.78166,-0.92614c-0.18476,-0.39636 -0.27713,-0.85193 -0.27713,-1.36672c0,-0.50215 0.08369,-0.95772 0.25107,-1.36671c0.16739,-0.40899 0.41847,-0.72244 0.75324,-0.94036c0.33477,-0.21791 0.70902,-0.32687 1.12274,-0.32688c0.30319,0.00001 0.57322,0.06396 0.81008,0.19186c0.23687,0.12792 0.42952,0.29451 0.57796,0.49979l0,-2.49183l0.84798,0l0,6.94491l-0.79114,0zm-2.69553,-2.51078c0,0.64428 0.1358,1.12591 0.40741,1.44488c0.2716,0.31898 0.59216,0.47847 0.96168,0.47847c0.37266,0 0.68927,-0.15238 0.94983,-0.45715c0.26055,-0.30476 0.39082,-0.76981 0.39083,-1.39514c-0.00001,-0.68848 -0.13265,-1.1938 -0.39794,-1.51594c-0.26529,-0.32213 -0.59217,-0.4832 -0.98062,-0.48321c-0.37899,0.00001 -0.6956,0.15476 -0.94983,0.46426c-0.25424,0.30951 -0.38136,0.79745 -0.38136,1.46383l0,0zm8.11503,1.89019c-0.31583,0.26845 -0.61981,0.45794 -0.91194,0.56848c-0.29213,0.11054 -0.60559,0.16581 -0.94035,0.16581c-0.55269,0 -0.97747,-0.13502 -1.27434,-0.40504c-0.29687,-0.27003 -0.44531,-0.61507 -0.44531,-1.03511c0,-0.24634 0.05606,-0.47136 0.16817,-0.67507c0.11212,-0.2037 0.25898,-0.36714 0.44057,-0.49031c0.1816,-0.12317 0.3861,-0.21633 0.61349,-0.2795c0.16738,-0.04421 0.42004,-0.08685 0.75797,-0.12791c0.68849,-0.08211 1.19538,-0.18001 1.52068,-0.29371c0.00315,-0.11685 0.00473,-0.19107 0.00473,-0.22266c0,-0.34739 -0.08053,-0.59216 -0.2416,-0.73428c-0.21792,-0.19265 -0.54163,-0.28897 -0.97115,-0.28898c-0.40109,0.00001 -0.69718,0.07028 -0.88825,0.21081c-0.19107,0.14055 -0.3324,0.38926 -0.42399,0.74613l-0.83376,-0.11369c0.07579,-0.35688 0.20054,-0.64506 0.37424,-0.86456c0.17371,-0.2195 0.42478,-0.38846 0.75324,-0.5069c0.32845,-0.11842 0.70901,-0.17764 1.14169,-0.17765c0.42952,0.00001 0.7785,0.05054 1.04695,0.1516c0.26844,0.10107 0.46583,0.22818 0.59216,0.38135c0.12633,0.15318 0.21476,0.34662 0.26529,0.58032c0.02842,0.14528 0.04263,0.40742 0.04264,0.7864l0,1.13695c-0.00001,0.79272 0.01815,1.29408 0.05448,1.5041c0.03631,0.21002 0.10816,0.41136 0.21555,0.60401l-0.89062,0c-0.08843,-0.17686 -0.14528,-0.38372 -0.17054,-0.62059l0,0zm-0.07106,-1.9044c-0.30951,0.12633 -0.77377,0.23371 -1.39277,0.32214c-0.35057,0.05053 -0.59849,0.10738 -0.74376,0.17054c-0.14528,0.06317 -0.2574,0.15555 -0.33635,0.27713c-0.07896,0.1216 -0.11844,0.25661 -0.11844,0.40505c0,0.22739 0.08606,0.41688 0.25819,0.56847c0.17212,0.1516 0.42399,0.2274 0.7556,0.22739c0.32845,0.00001 0.62059,-0.07184 0.8764,-0.21554c0.25582,-0.1437 0.44373,-0.3403 0.56375,-0.5898c0.09158,-0.19265 0.13737,-0.47689 0.13738,-0.85272l0,-0.31266zm4.0504,1.76228l0.12317,0.75324c-0.24002,0.05053 -0.45478,0.07579 -0.64427,0.07579c-0.30951,0 -0.54953,-0.04895 -0.72007,-0.14685c-0.17055,-0.09791 -0.29056,-0.2266 -0.36004,-0.38609c-0.06948,-0.15949 -0.10422,-0.49505 -0.10422,-1.00668l0,-2.89451l-0.62533,0l0,-0.66322l0.62533,0l0,-1.24592l0.84798,-0.51163l0,1.75755l0.85745,0l0,0.66322l-0.85745,0l0,2.94188c0,0.24318 0.015,0.39951 0.045,0.46899c0.03,0.06948 0.07896,0.12475 0.14686,0.16581c0.0679,0.04106 0.16501,0.06158 0.29135,0.06158c0.09474,0 0.21949,-0.01105 0.37424,-0.03316l0,0zm4.27307,-0.85745l0.88114,0.10896c-0.13897,0.51479 -0.39636,0.9143 -0.77219,1.19854c-0.37583,0.28424 -0.85588,0.42636 -1.44014,0.42636c-0.73587,0 -1.31935,-0.22661 -1.75044,-0.67981c-0.4311,-0.4532 -0.64664,-1.08879 -0.64664,-1.90677c0,-0.8464 0.21791,-1.5033 0.65375,-1.97072c0.43583,-0.46741 1.00115,-0.70112 1.69596,-0.70113c0.67269,0.00001 1.22222,0.22898 1.64858,0.68691c0.42636,0.45795 0.63954,1.10222 0.63954,1.93283c0,0.05053 -0.00158,0.12633 -0.00474,0.22739l-3.75195,0c0.03158,0.55269 0.18791,0.97589 0.46899,1.2696c0.28108,0.29372 0.63164,0.44057 1.05169,0.44057c0.31266,0 0.57952,-0.08211 0.8006,-0.24634c0.22107,-0.16422 0.39635,-0.42635 0.52585,-0.78639l0,0zm-2.79976,-1.37856l2.80923,0c-0.0379,-0.4232 -0.14528,-0.7406 -0.32214,-0.9522c-0.27161,-0.32845 -0.62375,-0.49268 -1.05642,-0.49268c-0.39162,0 -0.72086,0.13107 -0.98773,0.39319c-0.26687,0.26214 -0.41452,0.6127 -0.44294,1.05169l0,0zm-41.22414,15.12626l2.66711,-6.94491l0.9901,0l2.84239,6.94491l-1.04695,0l-0.81008,-2.10337l-2.90398,0l-0.7627,2.10337l-0.97589,0zm2.00388,-2.85187l2.35445,0l-0.72481,-1.92335c-0.22108,-0.58427 -0.3853,-1.06431 -0.49268,-1.44015c-0.08843,0.44532 -0.21318,0.88747 -0.37425,1.32645l-0.76271,2.03705zm5.13052,2.85187l0,-5.03104l0.76744,0l0,0.71534c0.36951,-0.55268 0.90325,-0.82903 1.60122,-0.82903c0.30318,0 0.58189,0.05448 0.83613,0.16344c0.25424,0.10896 0.44452,0.25187 0.57085,0.42872c0.12633,0.17687 0.21475,0.38689 0.26529,0.63007c0.03158,0.15791 0.04737,0.43425 0.04737,0.82903l0,3.09347l-0.85271,0l0,-3.06031c-0.00001,-0.3474 -0.03317,-0.60716 -0.09949,-0.77929c-0.06632,-0.17212 -0.18397,-0.3095 -0.35293,-0.41215c-0.16896,-0.10264 -0.36714,-0.15396 -0.59453,-0.15396c-0.3632,0 -0.67665,0.11528 -0.94036,0.34582c-0.26371,0.23056 -0.39557,0.66797 -0.39556,1.31224l0,2.74765l-0.85272,0zm8.6835,-0.62059c-0.31582,0.26844 -0.6198,0.45794 -0.91193,0.56847c-0.29214,0.11054 -0.60559,0.16581 -0.94036,0.16581c-0.55269,0 -0.97747,-0.13501 -1.27434,-0.40504c-0.29687,-0.27003 -0.44531,-0.61506 -0.44531,-1.0351c0,-0.24634 0.05606,-0.47137 0.16818,-0.67507c0.11212,-0.2037 0.25897,-0.36714 0.44057,-0.49031c0.1816,-0.12317 0.38609,-0.21634 0.61348,-0.27951c0.16739,-0.04421 0.42004,-0.08684 0.75797,-0.1279c0.68849,-0.08211 1.19538,-0.18002 1.52068,-0.29372c0.00316,-0.11685 0.00474,-0.19107 0.00474,-0.22265c0,-0.3474 -0.08054,-0.59216 -0.2416,-0.73429c-0.21792,-0.19264 -0.54164,-0.28897 -0.97115,-0.28897c-0.4011,0 -0.69718,0.07027 -0.88825,0.21081c-0.19107,0.14054 -0.3324,0.38925 -0.42399,0.74613l-0.83377,-0.1137c0.0758,-0.35687 0.20055,-0.64506 0.37425,-0.86456c0.1737,-0.21949 0.42478,-0.38846 0.75323,-0.50689c0.32846,-0.11843 0.70902,-0.17765 1.1417,-0.17765c0.42951,0 0.77849,0.05053 1.04694,0.15159c0.26845,0.10107 0.46584,0.22819 0.59217,0.38136c0.12632,0.15317 0.21475,0.34661 0.26529,0.58032c0.02842,0.14528 0.04263,0.40741 0.04263,0.78639l0,1.13696c0,0.79271 0.01816,1.29408 0.05448,1.5041c0.03632,0.21002 0.10817,0.41135 0.21555,0.60401l-0.89061,0c-0.08844,-0.17686 -0.14529,-0.38373 -0.17055,-0.62059l0,0zm-0.07106,-1.90441c-0.30951,0.12634 -0.77376,0.23371 -1.39277,0.32214c-0.35056,0.05054 -0.59848,0.10738 -0.74376,0.17055c-0.14528,0.06316 -0.25739,0.15554 -0.33635,0.27713c-0.07895,0.12159 -0.11843,0.2566 -0.11843,0.40504c0,0.22739 0.08606,0.41688 0.25818,0.56848c0.17212,0.15159 0.42399,0.22739 0.75561,0.22739c0.32845,0 0.62058,-0.07185 0.8764,-0.21555c0.25581,-0.1437 0.44372,-0.3403 0.56374,-0.5898c0.09158,-0.19264 0.13738,-0.47688 0.13738,-0.85271l0,-0.31267zm2.16969,2.525l0,-6.94491l0.85272,0l0,6.94491l-0.85272,0zm2.14127,1.93756l-0.09474,-0.80061c0.18633,0.05053 0.34898,0.0758 0.48794,0.0758c0.18949,0 0.34109,-0.03158 0.45478,-0.09475c0.1137,-0.06316 0.20686,-0.15159 0.2795,-0.26529c0.05369,-0.08527 0.14054,-0.29687 0.26056,-0.6348c0.01579,-0.04737 0.04105,-0.11685 0.07579,-0.20844l-1.90914,-5.04051l0.91904,0l1.04695,2.91345c0.1358,0.36952 0.25739,0.75798 0.36478,1.16538c0.0979,-0.39161 0.21475,-0.77376 0.35056,-1.14643l1.07537,-2.9324l0.85272,0l-1.91388,5.11631c-0.20529,0.55268 -0.36478,0.93325 -0.47847,1.14169c-0.1516,0.28108 -0.3253,0.48715 -0.52111,0.61822c-0.19581,0.13106 -0.42951,0.1966 -0.70112,0.1966c-0.16423,0 -0.3474,-0.03474 -0.54953,-0.10422l0,0zm4.43887,-1.93756l0,-0.69165l3.20243,-3.67616c-0.3632,0.01895 -0.68376,0.02843 -0.96168,0.02842l-2.05126,0l0,-0.69165l4.11199,0l0,0.56374l-2.72395,3.19296l-0.52585,0.58269c0.38215,-0.02843 0.7406,-0.04264 1.07538,-0.04264l2.32602,0l0,0.73429l-4.45308,0zm8.74509,-1.62017l0.88114,0.10896c-0.13897,0.51479 -0.39636,0.9143 -0.77218,1.19854c-0.37583,0.28424 -0.85588,0.42636 -1.44015,0.42636c-0.73586,0 -1.31934,-0.2266 -1.75044,-0.6798c-0.43109,-0.45321 -0.64664,-1.0888 -0.64664,-1.90677c0,-0.8464 0.21791,-1.50331 0.65375,-1.97073c0.43583,-0.46741 1.00115,-0.70112 1.69596,-0.70112c0.67269,0 1.22222,0.22897 1.64859,0.68691c0.42635,0.45794 0.63953,1.10222 0.63953,1.93282c0,0.05054 -0.00158,0.12634 -0.00473,0.2274l-3.75196,0c0.03158,0.55268 0.18791,0.97588 0.46899,1.2696c0.28108,0.29371 0.63164,0.44057 1.05169,0.44057c0.31266,0 0.57953,-0.08212 0.80061,-0.24634c0.22107,-0.16423 0.39635,-0.42636 0.52584,-0.7864l0,0zm-2.79976,-1.37856l2.80923,0c-0.0379,-0.42319 -0.14528,-0.74059 -0.32213,-0.9522c-0.27161,-0.32845 -0.62376,-0.49267 -1.05643,-0.49268c-0.39162,0.00001 -0.72086,0.13107 -0.98773,0.3932c-0.26687,0.26213 -0.41451,0.61269 -0.44294,1.05168l0,0zm6.79332,2.99873l2.66711,-6.94491l0.9901,0l2.84239,6.94491l-1.04695,0l-0.81008,-2.10337l-2.90398,0l-0.7627,2.10337l-0.97589,0zm2.00388,-2.85187l2.35445,0l-0.72481,-1.92335c-0.22108,-0.58427 -0.3853,-1.06431 -0.49268,-1.44015c-0.08843,0.44532 -0.21318,0.88747 -0.37425,1.32645l-0.76271,2.03705zm4.78943,1.35014l0.84325,-0.13265c0.04737,0.33793 0.17922,0.5969 0.39556,0.77692c0.21634,0.18002 0.51874,0.27003 0.9072,0.27003c0.39161,0 0.68217,-0.07975 0.87167,-0.23924c0.18948,-0.15949 0.28423,-0.34661 0.28423,-0.56137c0,-0.19265 -0.08369,-0.34424 -0.25107,-0.45478c-0.11686,-0.0758 -0.40742,-0.17212 -0.87167,-0.28898c-0.62533,-0.15791 -1.05879,-0.2945 -1.30039,-0.40978c-0.24161,-0.11527 -0.42478,-0.27476 -0.54953,-0.47847c-0.12475,-0.2037 -0.18713,-0.42872 -0.18713,-0.67506c0,-0.22423 0.05132,-0.43188 0.15397,-0.62296c0.10264,-0.19107 0.24239,-0.34977 0.41925,-0.4761c0.13264,-0.0979 0.31345,-0.1808 0.54242,-0.24871c0.22897,-0.0679 0.47452,-0.10185 0.73665,-0.10185c0.39478,0 0.74139,0.05685 1.03985,0.17054c0.29844,0.1137 0.51873,0.26766 0.66085,0.46189c0.14212,0.19423 0.24002,0.454 0.29372,0.77929l-0.83377,0.11369c-0.0379,-0.25897 -0.14765,-0.46109 -0.32925,-0.60637c-0.1816,-0.14528 -0.4382,-0.21791 -0.76981,-0.21792c-0.39162,0.00001 -0.67112,0.06475 -0.83851,0.19423c-0.16738,0.12949 -0.25107,0.28109 -0.25107,0.45478c0,0.11054 0.03474,0.21003 0.10422,0.29845c0.06948,0.0916 0.17844,0.16739 0.32687,0.2274c0.08527,0.03158 0.33635,0.10422 0.75324,0.21791c0.60321,0.16107 1.02404,0.29293 1.26249,0.39557c0.23844,0.10264 0.42557,0.25187 0.56137,0.44767c0.1358,0.19582 0.2037,0.439 0.20371,0.72955c-0.00001,0.28424 -0.08291,0.5519 -0.24871,0.80298c-0.16581,0.25108 -0.40505,0.44531 -0.7177,0.58269c-0.31267,0.13738 -0.66639,0.20607 -1.06116,0.20607c-0.65376,0 -1.15196,-0.1358 -1.49463,-0.40741c-0.34266,-0.2716 -0.56137,-0.67428 -0.65612,-1.20801l0,0zm4.86049,-0.58269l0,-0.85746l2.61974,0l0,0.85746l-2.61974,0zm3.83723,2.08442l0,-6.94491l0.91904,0l0,6.94491l-0.91904,0zm2.08442,-1.50173l0.84324,-0.13265c0.04737,0.33793 0.17923,0.5969 0.39557,0.77692c0.21633,0.18002 0.51873,0.27003 0.90719,0.27003c0.39162,0 0.68217,-0.07975 0.87167,-0.23924c0.18949,-0.15949 0.28424,-0.34661 0.28424,-0.56137c0,-0.19265 -0.0837,-0.34424 -0.25108,-0.45478c-0.11686,-0.0758 -0.40741,-0.17212 -0.87166,-0.28898c-0.62533,-0.15791 -1.0588,-0.2945 -1.3004,-0.40978c-0.2416,-0.11527 -0.42478,-0.27476 -0.54953,-0.47847c-0.12475,-0.2037 -0.18712,-0.42872 -0.18712,-0.67506c0,-0.22423 0.05132,-0.43188 0.15396,-0.62296c0.10264,-0.19107 0.24239,-0.34977 0.41925,-0.4761c0.13265,-0.0979 0.31346,-0.1808 0.54243,-0.24871c0.22897,-0.0679 0.47452,-0.10185 0.73665,-0.10185c0.39477,0 0.74139,0.05685 1.03984,0.17054c0.29845,0.1137 0.51873,0.26766 0.66086,0.46189c0.14211,0.19423 0.24002,0.454 0.29371,0.77929l-0.83377,0.11369c-0.0379,-0.25897 -0.14765,-0.46109 -0.32924,-0.60637c-0.1816,-0.14528 -0.43821,-0.21791 -0.76982,-0.21792c-0.39162,0.00001 -0.67112,0.06475 -0.8385,0.19423c-0.16739,0.12949 -0.25108,0.28109 -0.25108,0.45478c0,0.11054 0.03474,0.21003 0.10422,0.29845c0.06948,0.0916 0.17844,0.16739 0.32688,0.2274c0.08527,0.03158 0.33635,0.10422 0.75323,0.21791c0.60322,0.16107 1.02405,0.29293 1.2625,0.39557c0.23844,0.10264 0.42556,0.25187 0.56137,0.44767c0.1358,0.19582 0.2037,0.439 0.2037,0.72955c0,0.28424 -0.0829,0.5519 -0.24871,0.80298c-0.16581,0.25108 -0.40504,0.44531 -0.7177,0.58269c-0.31267,0.13738 -0.66639,0.20607 -1.06116,0.20607c-0.65375,0 -1.15196,-0.1358 -1.49462,-0.40741c-0.34267,-0.2716 -0.56138,-0.67428 -0.65612,-1.20801l0,0z" fill="#ffffff" id="text2493" stroke-width="1px"/>
    <path d="m107.21557,204.65973l0,-6.94491l2.39235,0c0.54005,0.00001 0.9522,0.03317 1.23644,0.09949c0.39793,0.09159 0.73744,0.2574 1.01852,0.49741c0.36635,0.30952 0.64032,0.70508 0.82193,1.1867c0.18159,0.48163 0.27239,1.03195 0.27239,1.65096c0,0.52742 -0.06159,0.99484 -0.18475,1.40224c-0.12318,0.40742 -0.28109,0.74455 -0.47373,1.01142c-0.19266,0.26687 -0.40347,0.47689 -0.63244,0.63007c-0.22897,0.15317 -0.50531,0.26923 -0.82903,0.34819c-0.32372,0.07895 -0.6956,0.11843 -1.11563,0.11843l-2.50605,0zm0.91904,-0.81956l1.48278,0c0.45794,0.00001 0.81719,-0.04263 1.07774,-0.1279c0.26055,-0.08527 0.4682,-0.20529 0.62296,-0.36004c0.21791,-0.21791 0.38767,-0.51084 0.50926,-0.87877c0.12159,-0.36793 0.18238,-0.81403 0.18239,-1.33829c-0.00001,-0.72639 -0.11923,-1.2846 -0.35767,-1.67465c-0.23845,-0.39003 -0.52821,-0.65137 -0.8693,-0.78402c-0.24634,-0.09474 -0.6427,-0.14212 -1.18906,-0.14212l-1.4591,0l0,5.30579zm9.42727,-0.8006l0.88114,0.10896c-0.13897,0.51479 -0.39636,0.9143 -0.77219,1.19854c-0.37583,0.28424 -0.85587,0.42636 -1.44014,0.42636c-0.73587,0 -1.31934,-0.2266 -1.75044,-0.67981c-0.4311,-0.4532 -0.64664,-1.08879 -0.64664,-1.90677c0,-0.8464 0.21791,-1.5033 0.65375,-1.97072c0.43583,-0.46741 1.00115,-0.70112 1.69596,-0.70113c0.67269,0.00001 1.22222,0.22898 1.64858,0.68691c0.42636,0.45795 0.63954,1.10222 0.63954,1.93283c0,0.05053 -0.00158,0.12633 -0.00474,0.22739l-3.75195,0c0.03158,0.55269 0.18791,0.97589 0.46899,1.2696c0.28108,0.29372 0.63164,0.44057 1.05169,0.44057c0.31266,0 0.57953,-0.08211 0.8006,-0.24634c0.22108,-0.16422 0.39636,-0.42635 0.52585,-0.78639l0,0zm-2.79976,-1.37856l2.80923,0c-0.0379,-0.4232 -0.14528,-0.7406 -0.32214,-0.9522c-0.27161,-0.32845 -0.62375,-0.49268 -1.05642,-0.49268c-0.39162,0 -0.72086,0.13107 -0.98773,0.39319c-0.26687,0.26214 -0.41452,0.6127 -0.44294,1.05169l0,0zm4.41518,1.49699l0.84325,-0.13264c0.04737,0.33793 0.17922,0.5969 0.39556,0.77692c0.21634,0.18002 0.51874,0.27002 0.9072,0.27002c0.39161,0 0.68217,-0.07974 0.87166,-0.23923c0.18949,-0.15949 0.28424,-0.34661 0.28424,-0.56137c0,-0.19265 -0.08369,-0.34425 -0.25107,-0.45479c-0.11686,-0.07579 -0.40742,-0.17212 -0.87167,-0.28897c-0.62533,-0.15791 -1.05879,-0.2945 -1.30039,-0.40978c-0.24161,-0.11527 -0.42479,-0.27476 -0.54953,-0.47847c-0.12475,-0.2037 -0.18713,-0.42872 -0.18713,-0.67507c0,-0.22423 0.05132,-0.43188 0.15397,-0.62295c0.10264,-0.19107 0.24239,-0.34977 0.41925,-0.4761c0.13264,-0.0979 0.31345,-0.18081 0.54242,-0.24871c0.22897,-0.0679 0.47452,-0.10185 0.73665,-0.10186c0.39478,0.00001 0.74139,0.05686 1.03984,0.17055c0.29845,0.1137 0.51874,0.26766 0.66086,0.46189c0.14212,0.19423 0.24002,0.45399 0.29371,0.77928l-0.83376,0.1137c-0.03791,-0.25897 -0.14765,-0.46109 -0.32925,-0.60638c-0.1816,-0.14527 -0.4382,-0.21791 -0.76981,-0.21791c-0.39162,0 -0.67112,0.06474 -0.83851,0.19423c-0.16738,0.12949 -0.25108,0.28108 -0.25107,0.45478c-0.00001,0.11054 0.03473,0.21002 0.10422,0.29845c0.06948,0.09159 0.17843,0.16739 0.32687,0.22739c0.08527,0.03159 0.33635,0.10423 0.75324,0.21792c0.60321,0.16107 1.02404,0.29293 1.26249,0.39556c0.23844,0.10265 0.42557,0.25187 0.56137,0.44768c0.1358,0.19581 0.2037,0.43899 0.20371,0.72955c-0.00001,0.28424 -0.08291,0.5519 -0.24871,0.80297c-0.16581,0.25108 -0.40505,0.44531 -0.71771,0.58269c-0.31266,0.13739 -0.66638,0.20608 -1.06115,0.20608c-0.65376,0 -1.15196,-0.13581 -1.49463,-0.40741c-0.34267,-0.27161 -0.56137,-0.67428 -0.65612,-1.20802l0,0zm5.19684,-4.46255l0,-0.98063l0.85272,0l0,0.98063l-0.85272,0zm0,5.96428l0,-5.03103l0.85272,0l0,5.03103l-0.85272,0zm1.99915,0.41688l0.82903,0.12318c0.03474,0.25581 0.13106,0.44214 0.28898,0.559c0.21159,0.15791 0.50057,0.23686 0.86692,0.23686c0.39478,0 0.69955,-0.07895 0.91431,-0.23686c0.21475,-0.15791 0.36003,-0.37899 0.43583,-0.66323c0.04421,-0.1737 0.06474,-0.53847 0.06159,-1.09432c-0.37268,0.439 -0.83693,0.65849 -1.39278,0.65849c-0.69165,0 -1.22696,-0.2495 -1.60595,-0.7485c-0.37898,-0.49899 -0.56848,-1.09747 -0.56847,-1.79544c-0.00001,-0.48004 0.08685,-0.92298 0.26055,-1.32882c0.1737,-0.40582 0.42557,-0.71927 0.7556,-0.94035c0.33003,-0.22107 0.7177,-0.33161 1.16301,-0.33162c0.59374,0.00001 1.08326,0.24003 1.46857,0.72008l0,-0.60638l0.78639,0l0,4.34886c0,0.78323 -0.07974,1.33829 -0.23923,1.66516c-0.15949,0.32688 -0.41215,0.58506 -0.75797,0.77456c-0.34583,0.18949 -0.7714,0.28423 -1.27671,0.28424c-0.60006,-0.00001 -1.08485,-0.13502 -1.45435,-0.40505c-0.36952,-0.27002 -0.54795,-0.67664 -0.53532,-1.21986l0,0zm0.70586,-3.0224c0,0.66006 0.13106,1.14169 0.3932,1.44488c0.26213,0.30319 0.59058,0.45478 0.98536,0.45478c0.39161,0 0.72007,-0.1508 0.98536,-0.45241c0.26529,-0.30161 0.39793,-0.77455 0.39794,-1.41883c-0.00001,-0.61585 -0.1366,-1.0801 -0.40978,-1.39277c-0.27319,-0.31266 -0.60243,-0.46899 -0.98773,-0.469c-0.37899,0.00001 -0.70113,0.15397 -0.96642,0.46189c-0.26529,0.30793 -0.39793,0.76508 -0.39793,1.37146l0,0zm4.85101,2.60552l0,-5.03103l0.76745,0l0,0.71533c0.36951,-0.55268 0.90325,-0.82902 1.60121,-0.82903c0.30319,0.00001 0.5819,0.05449 0.83614,0.16344c0.25423,0.10896 0.44451,0.25187 0.57085,0.42873c0.12632,0.17686 0.21475,0.38688 0.26529,0.63006c0.03157,0.15792 0.04736,0.43426 0.04737,0.82903l0,3.09347l-0.85272,0l0,-3.06031c0,-0.3474 -0.03316,-0.60716 -0.09948,-0.77929c-0.06633,-0.17211 -0.18397,-0.3095 -0.35293,-0.41214c-0.16897,-0.10264 -0.36715,-0.15396 -0.59454,-0.15396c-0.36319,0 -0.67664,0.11527 -0.94035,0.34582c-0.26372,0.23055 -0.39557,0.66796 -0.39557,1.31224l0,2.74764l-0.85272,0zm9.96732,0l0,-6.12535l-2.28812,0l0,-0.81956l5.50476,0l0,0.81956l-2.2976,0l0,6.12535l-0.91904,0zm3.73774,-2.51551c0,-0.93167 0.25898,-1.62174 0.77692,-2.07021c0.43268,-0.37267 0.9601,-0.559 1.58227,-0.55901c0.69164,0.00001 1.25696,0.22661 1.69596,0.67981c0.43898,0.45321 0.65848,1.07932 0.65849,1.87835c-0.00001,0.64743 -0.09712,1.15669 -0.29135,1.52778c-0.19423,0.37109 -0.47689,0.65928 -0.84798,0.86456c-0.37109,0.20528 -0.77613,0.30793 -1.21512,0.30793c-0.70428,0 -1.27355,-0.22582 -1.7078,-0.67744c-0.43426,-0.45162 -0.65139,-1.10221 -0.65139,-1.95177l0,0zm0.87641,0c0,0.64427 0.14054,1.12669 0.42162,1.44725c0.28108,0.32056 0.6348,0.48083 1.06116,0.48083c0.4232,0 0.77534,-0.16106 1.05642,-0.4832c0.28108,-0.32214 0.42162,-0.81324 0.42162,-1.47331c0,-0.62216 -0.14133,-1.09353 -0.42399,-1.41409c-0.28266,-0.32055 -0.63401,-0.48083 -1.05405,-0.48084c-0.42636,0.00001 -0.78008,0.1595 -1.06116,0.47847c-0.28108,0.31899 -0.42162,0.80061 -0.42162,1.44489l0,0zm4.50993,0.43109l0,-0.85745l2.61973,0l0,0.85745l-2.61973,0zm3.64299,2.08442l0,-6.94491l2.60553,0c0.53057,0.00001 0.95614,0.07028 1.27671,0.21081c0.32055,0.14055 0.57163,0.35689 0.75323,0.64902c0.18159,0.29214 0.27239,0.59769 0.27239,0.91667c0,0.29687 -0.08054,0.57638 -0.2416,0.8385c-0.16107,0.26214 -0.40425,0.47374 -0.72955,0.6348c0.42004,0.12318 0.74297,0.3332 0.96879,0.63007c0.2258,0.29687 0.33871,0.64743 0.33871,1.05168c0,0.3253 -0.06869,0.6277 -0.20607,0.9072c-0.13739,0.2795 -0.30714,0.49505 -0.50926,0.64664c-0.20213,0.1516 -0.45558,0.26608 -0.76034,0.34346c-0.30477,0.07737 -0.67823,0.11606 -1.12038,0.11606l-2.64816,0zm0.91904,-4.02672l1.50173,0c0.40741,0 0.69954,-0.02684 0.87641,-0.08053c0.2337,-0.06948 0.40977,-0.18475 0.52821,-0.34583c0.11843,-0.16106 0.17764,-0.36319 0.17765,-0.60637c-0.00001,-0.23055 -0.05528,-0.43346 -0.16581,-0.60875c-0.11054,-0.17527 -0.26845,-0.29529 -0.47373,-0.36004c-0.20529,-0.06473 -0.55743,-0.09711 -1.05642,-0.09711l-1.38804,0l0,2.09863zm0,3.20716l1.72912,0c0.29687,0.00001 0.50531,-0.01105 0.62533,-0.03316c0.2116,-0.03789 0.38846,-0.10106 0.53058,-0.18949c0.14211,-0.08843 0.25897,-0.21712 0.35056,-0.38609c0.09158,-0.16896 0.13738,-0.36398 0.13738,-0.58506c0,-0.25897 -0.06632,-0.48399 -0.19896,-0.67507c-0.13265,-0.19107 -0.31662,-0.32529 -0.5519,-0.40267c-0.23529,-0.07737 -0.57401,-0.11606 -1.01616,-0.11606l-1.60595,0l0,2.3876zm8.93459,-0.8006l0.88114,0.10896c-0.13897,0.51479 -0.39636,0.9143 -0.77219,1.19854c-0.37583,0.28424 -0.85588,0.42636 -1.44014,0.42636c-0.73587,0 -1.31935,-0.2266 -1.75044,-0.67981c-0.4311,-0.4532 -0.64664,-1.08879 -0.64664,-1.90677c0,-0.8464 0.21791,-1.5033 0.65375,-1.97072c0.43583,-0.46741 1.00115,-0.70112 1.69596,-0.70113c0.67269,0.00001 1.22222,0.22898 1.64858,0.68691c0.42636,0.45795 0.63954,1.10222 0.63954,1.93283c0,0.05053 -0.00158,0.12633 -0.00474,0.22739l-3.75195,0c0.03158,0.55269 0.18791,0.97589 0.46899,1.2696c0.28108,0.29372 0.63164,0.44057 1.05169,0.44057c0.31266,0 0.57952,-0.08211 0.8006,-0.24634c0.22107,-0.16422 0.39635,-0.42635 0.52585,-0.78639l0,0zm-2.79976,-1.37856l2.80923,0c-0.0379,-0.4232 -0.14528,-0.7406 -0.32214,-0.9522c-0.27161,-0.32845 -0.62375,-0.49268 -1.05642,-0.49268c-0.39162,0 -0.72086,0.13107 -0.98773,0.39319c-0.26687,0.26214 -0.41452,0.6127 -0.44294,1.05169l0,0z" fill="#ffffff" id="text2501" stroke-width="1px"/>
   </g>
  </g>
  <rect fill="#003298" height="10.5" id="svg_1" stroke="#ffffff" stroke-width="0" width="78.5" x="21.62499" y="117.29499"/>
  <rect fill="#003298" height="11.25" id="svg_3" stroke="#ffffff" stroke-width="0" width="43" x="38.62499" y="129.04499"/>
  <rect fill="#003298" height="23.75" id="svg_4" stroke="#ffffff" stroke-width="0" width="49.25" x="112.37499" y="46.99499"/>
  <rect fill="#003298" height="24.5" id="svg_6" stroke="#ffffff" stroke-width="0" width="41.5" x="188.62499" y="105.79499"/>
  <rect fill="#003298" height="12.5" id="svg_7" stroke="#ffffff" stroke-width="0" width="65.75" x="176.37499" y="131.79499"/>
  <rect fill="#003298" height="14.5" id="svg_9" stroke="#ffffff" stroke-width="0" width="61.5" x="105.62499" y="193.39499"/>
  <text fill="#ffffff" font-family="serif" font-size="19" id="svg_10" stroke="#ffffff" stroke-width="0" text-anchor="middle" x="61.87499" xml:space="preserve" y="133.89499">ACT</text>
  <text fill="#ffffff" font-family="serif" font-size="20" id="svg_8" stroke="#ffffff" stroke-width="0" text-anchor="middle" x="145.37499" xml:space="preserve" y="205.54499">CHECK</text>
  <text fill="#ffffff" font-family="serif" font-size="19" id="svg_5" stroke="#ffffff" stroke-width="0" text-anchor="middle" x="208.12499" xml:space="preserve" y="133.49499">DO</text>
  <text fill="#ffffff" font-family="serif" font-size="20" id="svg_2" stroke="#ffffff" stroke-width="0" text-anchor="middle" x="135.87499" xml:space="preserve" y="65.04499">PLAN</text>
 </g>
</svg>